<?xml version="1.0" encoding="UTF-8" standalone="no"?>
<svg
   id="svg"
   width="400"
   height="400"
   viewBox="0 0 400 400"
   version="1.1"
   xmlns="http://www.w3.org/2000/svg"
   xmlns:svg="http://www.w3.org/2000/svg">
  <defs
     id="defs1" />
  <g
     id="svgg"
     transform="matrix(1.25,0,0,1.25,-50,-50.008969)">
    <path
       id="path0"
       d="m 85.565,51.612 c -4.212,2.101 -7.884,5.804 -9.988,10.073 l -1.749,3.549 V 200 334.766 l 1.823,3.702 c 2.231,4.529 7.576,9.378 11.698,10.613 4.409,1.321 220.893,1.321 225.302,0 4.122,-1.235 9.467,-6.084 11.698,-10.613 l 1.823,-3.702 V 200 c 0,-123.662 -0.107,-135 -1.291,-137.609 -1.897,-4.177 -6.47,-8.886 -10.442,-10.753 L 310.955,50 199.813,50.031 C 90.579,50.062 88.619,50.089 85.565,51.612 m 225.072,9.764 c 5.475,4.088 5.354,3.449 5.616,29.695 l 0.238,23.773 H 200.042 83.594 L 83.598,92.773 C 83.604,65.449 84.523,62.008 92.32,60.144 99.195,58.499 308.365,59.68 310.637,61.376 M 96.605,70.179 c -2.152,2.378 -1.918,32.321 0.27,34.509 2.45,2.449 92.863,2.449 95.313,0 2.299,-2.3 2.416,-32.579 0.133,-34.645 -2.316,-2.096 -93.813,-1.967 -95.716,0.136 m 117.809,4.357 c -8.047,3.506 -10.377,14.607 -4.525,21.562 8.281,9.842 23.6,4.73 24.291,-8.106 0.58,-10.759 -9.774,-17.807 -19.766,-13.456 m 34.375,0 c -8.047,3.506 -10.377,14.607 -4.525,21.562 8.281,9.842 23.6,4.73 24.291,-8.106 0.58,-10.759 -9.774,-17.807 -19.766,-13.456 m 34.416,0.132 c -13.349,6.961 -8.753,26.336 6.248,26.336 13.945,0 19.098,-18.937 7.015,-25.78 -3.72,-2.107 -9.799,-2.362 -13.263,-0.556 m -99.611,12.441 v 8.985 h -39.063 -39.062 v -8.985 -8.984 h 39.062 39.063 v 8.984 m 39.687,-2.578 c 1.467,1.467 1.102,4.328 -0.715,5.601 -3.377,2.365 -7.251,-1.508 -4.885,-4.886 1.273,-1.816 4.133,-2.182 5.6,-0.715 m 34.375,0 c 1.467,1.467 1.102,4.328 -0.715,5.601 -3.377,2.365 -7.251,-1.508 -4.885,-4.886 1.273,-1.816 4.133,-2.182 5.6,-0.715 m 34.375,0 c 2.547,2.547 -0.742,7.704 -3.853,6.039 -0.783,-0.419 -1.766,-1.403 -2.185,-2.186 -1.665,-3.11 3.491,-6.4 6.038,-3.853 m 24.191,144.318 c -0.231,116.464 0.334,105.355 -5.585,109.775 -3.41,2.545 -217.864,2.545 -221.274,0 -5.919,-4.42 -5.354,6.689 -5.585,-109.775 L 83.571,125 H 200 316.429 l -0.207,103.849 M 189.745,157.06 c -28.97,3.384 -56.22,26.055 -63.347,52.704 -0.741,2.769 -1.482,3.875 -2.951,4.405 -7.991,2.88 -10.166,6.74 -10.166,18.046 0,11.513 2.415,16.14 9.67,18.535 2.18,0.719 2.684,1.392 3.539,4.731 9.247,36.079 52.885,60.505 90.992,50.931 50.94,-12.798 73.914,-72.69 44.678,-116.469 -15.561,-23.3 -43.979,-36.204 -72.415,-32.883 m 17.286,10.15 c 53.029,6.835 76.266,70.178 40.318,109.902 -32.575,35.997 -94.016,23.557 -110.2,-22.313 l -1.142,-3.236 h 4.175 4.176 l 2.708,5.664 c 26.995,56.45 111.575,35.151 108.975,-27.442 -2.432,-58.523 -82.51,-75.779 -108.311,-23.34 l -3.363,6.836 h -4.18 -4.18 l 1.119,-3.171 c 9.912,-28.095 40.263,-46.721 69.905,-42.9 m 1.853,19.111 c 36.495,7.732 49.719,52.913 23.237,79.394 -26.637,26.638 -71.647,13.077 -79.387,-23.918 -6.855,-32.763 23.2,-62.457 56.15,-55.476 m -32.321,20.71 c -0.86,0.86 -1.563,2.255 -1.563,3.102 0,0.846 -1.055,3.615 -2.344,6.151 -3.211,6.319 -3.18,11.073 0.116,18.224 l 2.459,5.336 -2.459,5.335 c -3.952,8.574 -2.968,14.196 2.485,14.196 2.586,0 5.212,-2.509 5.212,-4.98 0,-1.02 0.966,-3.569 2.146,-5.664 3.04,-5.394 3.04,-12.381 0,-17.775 -2.65,-4.704 -2.686,-6.709 -0.196,-10.958 5.128,-8.75 0.398,-19.222 -5.856,-12.967 m 21.448,0.355 c -1.054,1.055 -1.917,2.644 -1.917,3.53 0,0.887 -0.965,3.452 -2.144,5.7 -2.985,5.693 -2.984,11.953 0.004,17.271 2.667,4.748 2.676,6.522 0.058,11.647 -2.633,5.154 -2.958,11.078 -0.699,12.731 3.279,2.399 8.213,0.461 8.274,-3.248 0.014,-0.826 1.068,-3.602 2.344,-6.169 1.732,-3.486 2.319,-5.765 2.319,-9.004 0,-3.24 -0.587,-5.518 -2.319,-9.005 -2.854,-5.744 -2.853,-5.246 -0.025,-10.917 4.95,-9.924 0.646,-19.076 -5.895,-12.536 m 21.52,-0.355 c -0.859,0.86 -1.562,2.273 -1.562,3.14 0,0.868 -1.055,3.554 -2.344,5.969 -3.253,6.096 -3.214,11.144 0.141,18.423 l 2.484,5.39 -2.484,5.038 c -4.089,8.291 -3.047,14.384 2.46,14.384 2.646,0 5.212,-2.527 5.212,-5.134 0,-1.105 0.966,-3.654 2.148,-5.664 3.046,-5.183 3.046,-12.212 -0.002,-17.621 -2.651,-4.704 -2.687,-6.709 -0.197,-10.958 5.128,-8.75 0.399,-19.222 -5.856,-12.967 m -77.734,25.391 v 8.984 h -7.443 c -10.284,0 -10.916,-0.5 -10.916,-8.638 0,-8.729 0.692,-9.33 10.742,-9.33 h 7.617 v 8.984"
       stroke="none"
       fill="#000000"
       fill-rule="evenodd" />
  </g>
</svg>
