<svg id="svg" xmlns="http://www.w3.org/2000/svg" xmlns:xlink="http://www.w3.org/1999/xlink" width="400" height="400" viewBox="0, 0, 400,400"><g id="svgg"><path id="path0" d="M85.565 51.612 C 81.353 53.713,77.681 57.416,75.577 61.685 L 73.828 65.234 73.828 200.000 L 73.828 334.766 75.651 338.468 C 77.882 342.997,83.227 347.846,87.349 349.081 C 91.758 350.402,308.242 350.402,312.651 349.081 C 316.773 347.846,322.118 342.997,324.349 338.468 L 326.172 334.766 326.172 200.000 C 326.172 76.338,326.065 65.000,324.881 62.391 C 322.984 58.214,318.411 53.505,314.439 51.638 L 310.955 50.000 199.813 50.031 C 90.579 50.062,88.619 50.089,85.565 51.612 M310.637 61.376 C 316.112 65.464,315.991 64.825,316.253 91.071 L 316.491 114.844 200.042 114.844 L 83.594 114.844 83.598 92.773 C 83.604 65.449,84.523 62.008,92.320 60.144 C 99.195 58.499,308.365 59.680,310.637 61.376 M96.605 70.179 C 94.453 72.557,94.687 102.500,96.875 104.688 C 99.325 107.137,189.738 107.137,192.188 104.688 C 194.487 102.388,194.604 72.109,192.321 70.043 C 190.005 67.947,98.508 68.076,96.605 70.179 M214.414 74.536 C 206.367 78.042,204.037 89.143,209.889 96.098 C 218.170 105.940,233.489 100.828,234.180 87.992 C 234.760 77.233,224.406 70.185,214.414 74.536 M248.789 74.536 C 240.742 78.042,238.412 89.143,244.264 96.098 C 252.545 105.940,267.864 100.828,268.555 87.992 C 269.135 77.233,258.781 70.185,248.789 74.536 M283.205 74.668 C 269.856 81.629,274.452 101.004,289.453 101.004 C 303.398 101.004,308.551 82.067,296.468 75.224 C 292.748 73.117,286.669 72.862,283.205 74.668 M183.594 87.109 L 183.594 96.094 144.531 96.094 L 105.469 96.094 105.469 87.109 L 105.469 78.125 144.531 78.125 L 183.594 78.125 183.594 87.109 M223.281 84.531 C 224.748 85.998,224.383 88.859,222.566 90.132 C 219.189 92.497,215.315 88.624,217.681 85.246 C 218.954 83.430,221.814 83.064,223.281 84.531 M257.656 84.531 C 259.123 85.998,258.758 88.859,256.941 90.132 C 253.564 92.497,249.690 88.624,252.056 85.246 C 253.329 83.430,256.189 83.064,257.656 84.531 M292.031 84.531 C 294.578 87.078,291.289 92.235,288.178 90.570 C 287.395 90.151,286.412 89.167,285.993 88.384 C 284.328 85.274,289.484 81.984,292.031 84.531 M316.222 228.849 C 315.991 345.313,316.556 334.204,310.637 338.624 C 307.227 341.169,92.773 341.169,89.363 338.624 C 83.444 334.204,84.009 345.313,83.778 228.849 L 83.571 125.000 200.000 125.000 L 316.429 125.000 316.222 228.849 M189.745 157.060 C 160.775 160.444,133.525 183.115,126.398 209.764 C 125.657 212.533,124.916 213.639,123.447 214.169 C 115.456 217.049,113.281 220.909,113.281 232.215 C 113.281 243.728,115.696 248.355,122.951 250.750 C 125.131 251.469,125.635 252.142,126.490 255.481 C 135.737 291.560,179.375 315.986,217.482 306.412 C 268.422 293.614,291.396 233.722,262.160 189.943 C 246.599 166.643,218.181 153.739,189.745 157.060 M207.031 167.210 C 260.060 174.045,283.297 237.388,247.349 277.112 C 214.774 313.109,153.333 300.669,137.149 254.799 L 136.007 251.563 140.182 251.563 L 144.358 251.563 147.066 257.227 C 174.061 313.677,258.641 292.378,256.041 229.785 C 253.609 171.262,173.531 154.006,147.730 206.445 L 144.367 213.281 140.187 213.281 L 136.007 213.281 137.126 210.110 C 147.038 182.015,177.389 163.389,207.031 167.210 M208.884 186.321 C 245.379 194.053,258.603 239.234,232.121 265.715 C 205.484 292.353,160.474 278.792,152.734 241.797 C 145.879 209.034,175.934 179.340,208.884 186.321 M176.563 207.031 C 175.703 207.891,175.000 209.286,175.000 210.133 C 175.000 210.979,173.945 213.748,172.656 216.284 C 169.445 222.603,169.476 227.357,172.772 234.508 L 175.231 239.844 172.772 245.179 C 168.820 253.753,169.804 259.375,175.257 259.375 C 177.843 259.375,180.469 256.866,180.469 254.395 C 180.469 253.375,181.435 250.826,182.615 248.731 C 185.655 243.337,185.655 236.350,182.615 230.956 C 179.965 226.252,179.929 224.247,182.419 219.998 C 187.547 211.248,182.817 200.776,176.563 207.031 M198.011 207.386 C 196.957 208.441,196.094 210.030,196.094 210.916 C 196.094 211.803,195.129 214.368,193.950 216.616 C 190.965 222.309,190.966 228.569,193.954 233.887 C 196.621 238.635,196.630 240.409,194.012 245.534 C 191.379 250.688,191.054 256.612,193.313 258.265 C 196.592 260.664,201.526 258.726,201.587 255.017 C 201.601 254.191,202.655 251.415,203.931 248.848 C 205.663 245.362,206.250 243.083,206.250 239.844 C 206.250 236.604,205.663 234.326,203.931 230.839 C 201.077 225.095,201.078 225.593,203.906 219.922 C 208.856 209.998,204.552 200.846,198.011 207.386 M219.531 207.031 C 218.672 207.891,217.969 209.304,217.969 210.171 C 217.969 211.039,216.914 213.725,215.625 216.140 C 212.372 222.236,212.411 227.284,215.766 234.563 L 218.250 239.953 215.766 244.991 C 211.677 253.282,212.719 259.375,218.226 259.375 C 220.872 259.375,223.438 256.848,223.438 254.241 C 223.438 253.136,224.404 250.587,225.586 248.577 C 228.632 243.394,228.632 236.365,225.584 230.956 C 222.933 226.252,222.897 224.247,225.387 219.998 C 230.515 211.248,225.786 200.776,219.531 207.031 M141.797 232.422 L 141.797 241.406 134.354 241.406 C 124.070 241.406,123.438 240.906,123.438 232.768 C 123.438 224.039,124.130 223.438,134.180 223.438 L 141.797 223.438 141.797 232.422 " stroke="none" fill="#000000" fill-rule="evenodd"></path></g></svg>