<svg id="svg" xmlns="http://www.w3.org/2000/svg" xmlns:xlink="http://www.w3.org/1999/xlink" width="400" height="400" viewBox="0, 0, 400,400"><g id="svgg"><path id="path0" d="M48.047 13.984 C 44.185 15.776,40.313 19.767,38.711 23.608 C 36.864 28.038,36.864 371.962,38.711 376.392 C 40.313 380.233,44.185 384.224,48.047 386.016 C 52.928 388.281,347.072 388.281,351.953 386.016 C 355.815 384.224,359.687 380.233,361.289 376.392 C 363.342 371.469,363.076 27.488,361.016 23.047 C 359.224 19.185,355.233 15.313,351.392 13.711 C 346.475 11.660,52.486 11.925,48.047 13.984 M345.280 25.887 C 349.821 27.470,350.000 28.751,350.000 59.741 L 350.000 87.500 200.000 87.500 L 50.000 87.500 50.000 59.882 C 50.000 29.532,50.208 27.861,54.207 26.121 C 57.482 24.695,341.207 24.467,345.280 25.887 M70.313 39.063 C 68.854 40.521,68.750 41.667,68.750 56.250 C 68.750 77.510,62.893 75.000,112.500 75.000 C 162.107 75.000,156.250 77.510,156.250 56.250 C 156.250 41.667,156.146 40.521,154.688 39.063 C 152.241 36.616,72.759 36.616,70.313 39.063 M204.297 38.984 C 189.874 45.676,190.229 67.687,204.858 73.789 C 217.628 79.115,231.216 70.074,231.216 56.250 C 231.216 42.168,217.037 33.073,204.297 38.984 M254.297 38.984 C 239.874 45.676,240.229 67.687,254.858 73.789 C 267.628 79.115,281.216 70.074,281.216 56.250 C 281.216 42.168,267.037 33.073,254.297 38.984 M304.297 38.984 C 289.874 45.676,290.229 67.687,304.858 73.789 C 317.628 79.115,331.216 70.074,331.216 56.250 C 331.216 42.168,317.037 33.073,304.297 38.984 M143.750 56.250 L 143.750 62.500 112.500 62.500 L 81.250 62.500 81.250 56.250 L 81.250 50.000 112.500 50.000 L 143.750 50.000 143.750 56.250 M216.406 52.344 C 217.274 53.212,217.969 54.948,217.969 56.250 C 217.969 57.552,217.274 59.288,216.406 60.156 C 213.025 63.538,207.031 61.040,207.031 56.250 C 207.031 53.243,209.493 50.781,212.500 50.781 C 213.802 50.781,215.538 51.476,216.406 52.344 M266.406 52.344 C 267.274 53.212,267.969 54.948,267.969 56.250 C 267.969 57.552,267.274 59.288,266.406 60.156 C 263.025 63.538,257.031 61.040,257.031 56.250 C 257.031 53.243,259.493 50.781,262.500 50.781 C 263.802 50.781,265.538 51.476,266.406 52.344 M316.406 52.344 C 317.274 53.212,317.969 54.948,317.969 56.250 C 317.969 57.552,317.274 59.288,316.406 60.156 C 313.025 63.538,307.031 61.040,307.031 56.250 C 307.031 53.243,309.493 50.781,312.500 50.781 C 313.802 50.781,315.538 51.476,316.406 52.344 M350.000 234.009 C 350.000 381.326,350.302 372.362,345.280 374.113 C 341.642 375.381,58.358 375.381,54.720 374.113 C 49.698 372.362,50.000 381.326,50.000 234.009 L 50.000 100.000 200.000 100.000 L 350.000 100.000 350.000 234.009 M184.375 119.225 C 121.054 130.759,81.641 176.135,81.641 237.500 C 81.641 305.196,132.304 355.859,200.000 355.859 C 267.699 355.859,318.381 305.174,318.352 237.500 C 318.329 180.053,281.627 134.149,225.205 120.997 C 218.563 119.448,189.962 118.207,184.375 119.225 M207.813 132.053 C 291.202 139.377,334.394 233.846,284.777 300.391 C 235.633 366.300,133.992 353.666,102.251 277.703 C 75.014 212.515,120.074 138.402,190.768 132.112 C 194.772 131.756,198.223 131.420,198.438 131.364 C 198.652 131.309,202.871 131.618,207.813 132.053 M180.544 145.403 C 106.996 160.840,80.465 254.158,134.999 305.603 C 188.767 356.324,277.444 328.596,292.143 256.466 C 305.629 190.294,246.592 131.540,180.544 145.403 M208.984 157.372 C 246.194 160.198,278.514 194.089,280.258 232.114 L 280.674 241.181 275.592 244.807 C 252.703 261.140,226.304 258.769,204.297 238.402 C 181.976 217.745,152.031 212.896,126.230 225.760 C 118.793 229.468,119.192 229.704,120.684 222.480 C 128.658 183.874,166.154 153.411,201.563 156.771 C 202.637 156.873,205.977 157.143,208.984 157.372 M167.919 233.302 C 178.333 235.882,186.342 240.435,195.703 249.098 C 217.422 269.198,247.296 274.479,272.053 262.597 C 278.065 259.712,277.918 259.500,275.059 266.912 C 245.778 342.841,132.329 330.067,120.026 249.455 L 119.526 246.176 124.411 242.715 C 137.817 233.216,153.700 229.779,167.919 233.302 " stroke="none" fill="#000000" fill-rule="evenodd"></path></g></svg>